<svg xmlns="http://www.w3.org/2000/svg" xmlns:xlink="http://www.w3.org/1999/xlink" width="140" zoomAndPan="magnify" viewBox="0 0 104.88 74.999997" height="100" preserveAspectRatio="xMidYMid meet" version="1.0"><defs><clipPath id="id1"><path d="M 21 2 L 81 2 L 81 72 L 21 72 Z M 21 2 " clip-rule="nonzero"/></clipPath><clipPath id="id2"><path d="M 52.433594 -15.519531 L 105.40625 37.453125 L 52.433594 90.425781 L -0.539062 37.453125 Z M 52.433594 -15.519531 " clip-rule="nonzero"/></clipPath><clipPath id="id3"><path d="M 52.433594 90.242188 L -0.539062 37.269531 L 52.433594 -15.703125 L 105.40625 37.269531 Z M 52.433594 90.242188 " clip-rule="nonzero"/></clipPath><clipPath id="id4"><path d="M 61 22 L 96 22 L 96 52 L 61 52 Z M 61 22 " clip-rule="nonzero"/></clipPath><clipPath id="id5"><path d="M 52.433594 -15.519531 L 105.40625 37.453125 L 52.433594 90.425781 L -0.539062 37.453125 Z M 52.433594 -15.519531 " clip-rule="nonzero"/></clipPath><clipPath id="id6"><path d="M 52.433594 90.242188 L -0.539062 37.269531 L 52.433594 -15.703125 L 105.40625 37.269531 Z M 52.433594 90.242188 " clip-rule="nonzero"/></clipPath></defs><g clip-path="url(#id1)"><g clip-path="url(#id2)"><g clip-path="url(#id3)"><path fill="#003986" d="M 80.90625 12.773438 L 71.414062 22.265625 C 61.359375 12.207031 43.601562 14.355469 36.875 28.808594 C 36.257812 30.132812 35.789062 31.511719 35.472656 32.941406 C 35.15625 34.367188 35 35.816406 35 37.277344 C 35 38.742188 35.160156 40.1875 35.476562 41.613281 C 35.792969 43.042969 36.257812 44.421875 36.875 45.746094 C 43.628906 60.160156 61.371094 62.359375 71.421875 52.308594 L 80.898438 61.78125 C 64.878906 77.800781 36.886719 74.792969 25.328125 52.742188 C 20.285156 43.085938 20.269531 31.410156 25.320312 21.804688 C 36.894531 -0.269531 64.859375 -3.285156 80.914062 12.765625 Z M 80.90625 12.773438 " fill-opacity="1" fill-rule="nonzero"/></g></g></g><g clip-path="url(#id4)"><g clip-path="url(#id5)"><g clip-path="url(#id6)"><path fill="#003986" d="M 80.863281 31.652344 L 71.425781 41.089844 L 61.984375 31.648438 L 71.421875 22.210938 Z M 95.414062 31.65625 L 88.140625 38.929688 L 80.863281 31.652344 L 88.136719 24.378906 Z M 88.140625 38.929688 L 94.222656 45.011719 L 88.144531 51.089844 L 82.0625 45.007812 Z M 88.140625 38.929688 " fill-opacity="1" fill-rule="nonzero"/></g></g></g></svg>